<mxfile host="app.diagrams.net" modified="2022-12-22T11:47:02.555Z" agent="5.0 (Macintosh; Intel Mac OS X 10_15_7) AppleWebKit/605.1.15 (KHTML, like Gecko) Version/15.6.1 Safari/605.1.15" version="20.6.0" etag="WhNevOwrLbl_h3AR44Jp" type="github">
  <diagram id="LNZCB491hoh74fM_uxBA" name="Page-1">
    <mxGraphModel dx="829" dy="759" grid="1" gridSize="10" guides="1" tooltips="1" connect="1" arrows="1" fold="1" page="1" pageScale="1" pageWidth="827" pageHeight="1169" math="0" shadow="0">
      <root>
        <mxCell id="0" />
        <mxCell id="1" parent="0" />
        <mxCell id="ZLTrSNtA1yzsjNhUDBOq-1" value="Start" style="ellipse;whiteSpace=wrap;html=1;fillColor=#e1d5e7;strokeColor=#9673a6;" vertex="1" parent="1">
          <mxGeometry x="304" y="100" width="110" height="40" as="geometry" />
        </mxCell>
        <mxCell id="ZLTrSNtA1yzsjNhUDBOq-2" value="If&lt;br&gt;Configured&amp;nbsp;&lt;br&gt;Correct" style="rhombus;whiteSpace=wrap;html=1;fillColor=#f8cecc;strokeColor=#b85450;" vertex="1" parent="1">
          <mxGeometry x="304" y="200" width="110" height="110" as="geometry" />
        </mxCell>
        <mxCell id="ZLTrSNtA1yzsjNhUDBOq-3" value="" style="endArrow=classic;html=1;rounded=0;exitX=0.5;exitY=1;exitDx=0;exitDy=0;" edge="1" parent="1" source="ZLTrSNtA1yzsjNhUDBOq-1" target="ZLTrSNtA1yzsjNhUDBOq-2">
          <mxGeometry width="50" height="50" relative="1" as="geometry">
            <mxPoint x="334" y="310" as="sourcePoint" />
            <mxPoint x="384" y="260" as="targetPoint" />
          </mxGeometry>
        </mxCell>
        <mxCell id="ZLTrSNtA1yzsjNhUDBOq-5" value="" style="endArrow=classic;html=1;rounded=0;entryX=0;entryY=0.5;entryDx=0;entryDy=0;" edge="1" parent="1" source="ZLTrSNtA1yzsjNhUDBOq-2">
          <mxGeometry width="50" height="50" relative="1" as="geometry">
            <mxPoint x="340" y="310" as="sourcePoint" />
            <mxPoint x="500" y="255" as="targetPoint" />
          </mxGeometry>
        </mxCell>
        <mxCell id="ZLTrSNtA1yzsjNhUDBOq-6" style="edgeStyle=orthogonalEdgeStyle;rounded=0;orthogonalLoop=1;jettySize=auto;html=1;exitX=0.5;exitY=1;exitDx=0;exitDy=0;" edge="1" parent="1">
          <mxGeometry relative="1" as="geometry">
            <mxPoint x="545" y="270" as="sourcePoint" />
            <mxPoint x="545" y="270" as="targetPoint" />
          </mxGeometry>
        </mxCell>
        <mxCell id="ZLTrSNtA1yzsjNhUDBOq-7" value="If&lt;br&gt;Display&amp;nbsp;&lt;br&gt;Configuration" style="rhombus;whiteSpace=wrap;html=1;fillColor=#f8cecc;strokeColor=#b85450;" vertex="1" parent="1">
          <mxGeometry x="304" y="367" width="110" height="110" as="geometry" />
        </mxCell>
        <mxCell id="ZLTrSNtA1yzsjNhUDBOq-8" value="" style="endArrow=classic;html=1;rounded=0;exitX=0.5;exitY=1;exitDx=0;exitDy=0;" edge="1" parent="1">
          <mxGeometry width="50" height="50" relative="1" as="geometry">
            <mxPoint x="359.5" y="308" as="sourcePoint" />
            <mxPoint x="359.5" y="368" as="targetPoint" />
          </mxGeometry>
        </mxCell>
        <mxCell id="ZLTrSNtA1yzsjNhUDBOq-9" value="Yes" style="text;html=1;strokeColor=none;fillColor=none;align=center;verticalAlign=middle;whiteSpace=wrap;rounded=0;" vertex="1" parent="1">
          <mxGeometry x="420" y="230" width="60" height="30" as="geometry" />
        </mxCell>
        <mxCell id="ZLTrSNtA1yzsjNhUDBOq-10" value="No" style="text;html=1;strokeColor=none;fillColor=none;align=center;verticalAlign=middle;whiteSpace=wrap;rounded=0;" vertex="1" parent="1">
          <mxGeometry x="343" y="320" width="60" height="30" as="geometry" />
        </mxCell>
        <mxCell id="ZLTrSNtA1yzsjNhUDBOq-11" value="" style="endArrow=classic;html=1;rounded=0;entryX=0;entryY=0.5;entryDx=0;entryDy=0;" edge="1" parent="1" target="ZLTrSNtA1yzsjNhUDBOq-19">
          <mxGeometry width="50" height="50" relative="1" as="geometry">
            <mxPoint x="412" y="422" as="sourcePoint" />
            <mxPoint x="498" y="422" as="targetPoint" />
          </mxGeometry>
        </mxCell>
        <mxCell id="ZLTrSNtA1yzsjNhUDBOq-12" value="Yes" style="text;html=1;strokeColor=none;fillColor=none;align=center;verticalAlign=middle;whiteSpace=wrap;rounded=0;" vertex="1" parent="1">
          <mxGeometry x="714" y="465" width="60" height="30" as="geometry" />
        </mxCell>
        <mxCell id="ZLTrSNtA1yzsjNhUDBOq-13" value="" style="endArrow=classic;html=1;rounded=0;exitX=0.5;exitY=1;exitDx=0;exitDy=0;" edge="1" parent="1">
          <mxGeometry width="50" height="50" relative="1" as="geometry">
            <mxPoint x="728.5" y="462" as="sourcePoint" />
            <mxPoint x="728.5" y="522" as="targetPoint" />
          </mxGeometry>
        </mxCell>
        <mxCell id="ZLTrSNtA1yzsjNhUDBOq-15" value="&lt;div style=&quot;text-align: left;&quot;&gt;&lt;ul&gt;&lt;li&gt;&lt;span style=&quot;font-size: 11px;&quot;&gt;Type&lt;/span&gt;&lt;/li&gt;&lt;li&gt;&lt;span style=&quot;font-size: 11px;&quot;&gt;Cron&lt;/span&gt;&lt;/li&gt;&lt;li&gt;&lt;span style=&quot;font-size: 11px;&quot;&gt;Name&lt;/span&gt;&lt;/li&gt;&lt;/ul&gt;&lt;/div&gt;" style="rounded=0;whiteSpace=wrap;html=1;fillColor=#f5f5f5;strokeColor=#666666;fontColor=#333333;" vertex="1" parent="1">
          <mxGeometry x="279" y="540" width="160" height="80" as="geometry" />
        </mxCell>
        <mxCell id="ZLTrSNtA1yzsjNhUDBOq-18" value="Display" style="text;html=1;strokeColor=none;fillColor=none;align=center;verticalAlign=middle;whiteSpace=wrap;rounded=0;fontSize=11;" vertex="1" parent="1">
          <mxGeometry x="320" y="540" width="60" height="30" as="geometry" />
        </mxCell>
        <mxCell id="ZLTrSNtA1yzsjNhUDBOq-19" value="Put New Scheduled&lt;br&gt;Action" style="rounded=0;whiteSpace=wrap;html=1;fontSize=11;fillColor=#f5f5f5;fontColor=#333333;strokeColor=#666666;" vertex="1" parent="1">
          <mxGeometry x="484" y="392" width="120" height="60" as="geometry" />
        </mxCell>
        <mxCell id="ZLTrSNtA1yzsjNhUDBOq-21" value="Success?" style="rhombus;whiteSpace=wrap;html=1;fontSize=11;fillColor=#f8cecc;strokeColor=#b85450;" vertex="1" parent="1">
          <mxGeometry x="688" y="382" width="80" height="80" as="geometry" />
        </mxCell>
        <mxCell id="ZLTrSNtA1yzsjNhUDBOq-22" value="" style="endArrow=classic;html=1;rounded=0;entryX=0;entryY=0.5;entryDx=0;entryDy=0;" edge="1" parent="1">
          <mxGeometry width="50" height="50" relative="1" as="geometry">
            <mxPoint x="766" y="422" as="sourcePoint" />
            <mxPoint x="852" y="422" as="targetPoint" />
          </mxGeometry>
        </mxCell>
        <mxCell id="ZLTrSNtA1yzsjNhUDBOq-23" value="No" style="text;html=1;strokeColor=none;fillColor=none;align=center;verticalAlign=middle;whiteSpace=wrap;rounded=0;" vertex="1" parent="1">
          <mxGeometry x="774" y="401" width="60" height="30" as="geometry" />
        </mxCell>
        <mxCell id="ZLTrSNtA1yzsjNhUDBOq-24" value="" style="endArrow=classic;html=1;rounded=0;entryX=0;entryY=0.5;entryDx=0;entryDy=0;" edge="1" parent="1">
          <mxGeometry width="50" height="50" relative="1" as="geometry">
            <mxPoint x="604" y="421.5" as="sourcePoint" />
            <mxPoint x="690" y="421.5" as="targetPoint" />
          </mxGeometry>
        </mxCell>
        <mxCell id="ZLTrSNtA1yzsjNhUDBOq-25" value="Show Error Message" style="rounded=1;whiteSpace=wrap;html=1;fontSize=11;fillColor=#fad7ac;strokeColor=#b46504;" vertex="1" parent="1">
          <mxGeometry x="854" y="398" width="110" height="48" as="geometry" />
        </mxCell>
        <mxCell id="ZLTrSNtA1yzsjNhUDBOq-26" value="Exit" style="rounded=1;whiteSpace=wrap;html=1;fontSize=11;arcSize=50;fillColor=#d5e8d4;strokeColor=#82b366;" vertex="1" parent="1">
          <mxGeometry x="685" y="520" width="89" height="29" as="geometry" />
        </mxCell>
        <mxCell id="ZLTrSNtA1yzsjNhUDBOq-27" value="Yes" style="text;html=1;strokeColor=none;fillColor=none;align=center;verticalAlign=middle;whiteSpace=wrap;rounded=0;" vertex="1" parent="1">
          <mxGeometry x="346" y="762" width="60" height="30" as="geometry" />
        </mxCell>
        <mxCell id="ZLTrSNtA1yzsjNhUDBOq-28" value="" style="endArrow=classic;html=1;rounded=0;exitX=0.5;exitY=1;exitDx=0;exitDy=0;" edge="1" parent="1">
          <mxGeometry width="50" height="50" relative="1" as="geometry">
            <mxPoint x="360.5" y="759" as="sourcePoint" />
            <mxPoint x="360.5" y="819" as="targetPoint" />
          </mxGeometry>
        </mxCell>
        <mxCell id="ZLTrSNtA1yzsjNhUDBOq-29" value="Modify?" style="rhombus;whiteSpace=wrap;html=1;fontSize=11;fillColor=#f8cecc;strokeColor=#b85450;" vertex="1" parent="1">
          <mxGeometry x="320" y="679" width="80" height="80" as="geometry" />
        </mxCell>
        <mxCell id="ZLTrSNtA1yzsjNhUDBOq-30" value="" style="endArrow=classic;html=1;rounded=0;entryX=0;entryY=0.5;entryDx=0;entryDy=0;" edge="1" parent="1">
          <mxGeometry width="50" height="50" relative="1" as="geometry">
            <mxPoint x="398" y="719" as="sourcePoint" />
            <mxPoint x="484" y="719" as="targetPoint" />
          </mxGeometry>
        </mxCell>
        <mxCell id="ZLTrSNtA1yzsjNhUDBOq-31" value="No" style="text;html=1;strokeColor=none;fillColor=none;align=center;verticalAlign=middle;whiteSpace=wrap;rounded=0;" vertex="1" parent="1">
          <mxGeometry x="406" y="698" width="60" height="30" as="geometry" />
        </mxCell>
        <mxCell id="ZLTrSNtA1yzsjNhUDBOq-32" value="" style="endArrow=classic;html=1;rounded=0;exitX=0.5;exitY=1;exitDx=0;exitDy=0;" edge="1" parent="1">
          <mxGeometry width="50" height="50" relative="1" as="geometry">
            <mxPoint x="359.5" y="619" as="sourcePoint" />
            <mxPoint x="359.5" y="679" as="targetPoint" />
          </mxGeometry>
        </mxCell>
        <mxCell id="ZLTrSNtA1yzsjNhUDBOq-33" value="Exit" style="rounded=1;whiteSpace=wrap;html=1;fontSize=11;arcSize=50;fillColor=#d5e8d4;strokeColor=#82b366;" vertex="1" parent="1">
          <mxGeometry x="500" y="240.5" width="89" height="29" as="geometry" />
        </mxCell>
        <mxCell id="ZLTrSNtA1yzsjNhUDBOq-34" value="Put Action" style="rounded=0;whiteSpace=wrap;html=1;fontSize=11;fillColor=#f5f5f5;strokeColor=#666666;fontColor=#333333;" vertex="1" parent="1">
          <mxGeometry x="304" y="819" width="120" height="60" as="geometry" />
        </mxCell>
        <mxCell id="ZLTrSNtA1yzsjNhUDBOq-36" value="" style="endArrow=classic;html=1;rounded=0;exitX=0.5;exitY=1;exitDx=0;exitDy=0;" edge="1" parent="1">
          <mxGeometry width="50" height="50" relative="1" as="geometry">
            <mxPoint x="359" y="879" as="sourcePoint" />
            <mxPoint x="359" y="939" as="targetPoint" />
          </mxGeometry>
        </mxCell>
        <mxCell id="ZLTrSNtA1yzsjNhUDBOq-37" value="Exit" style="rounded=1;whiteSpace=wrap;html=1;fontSize=11;arcSize=50;fillColor=#d5e8d4;strokeColor=#82b366;" vertex="1" parent="1">
          <mxGeometry x="315.5" y="937" width="89" height="29" as="geometry" />
        </mxCell>
        <mxCell id="ZLTrSNtA1yzsjNhUDBOq-38" value="" style="endArrow=classic;html=1;rounded=0;exitX=0.5;exitY=1;exitDx=0;exitDy=0;" edge="1" parent="1">
          <mxGeometry width="50" height="50" relative="1" as="geometry">
            <mxPoint x="359.5" y="477" as="sourcePoint" />
            <mxPoint x="359.5" y="537" as="targetPoint" />
          </mxGeometry>
        </mxCell>
        <mxCell id="ZLTrSNtA1yzsjNhUDBOq-39" value="Add New" style="rhombus;whiteSpace=wrap;html=1;fontSize=11;fillColor=#f8cecc;strokeColor=#b85450;" vertex="1" parent="1">
          <mxGeometry x="483" y="679" width="80" height="80" as="geometry" />
        </mxCell>
        <mxCell id="ZLTrSNtA1yzsjNhUDBOq-40" value="" style="endArrow=classic;html=1;rounded=0;entryX=0;entryY=0.5;entryDx=0;entryDy=0;" edge="1" parent="1">
          <mxGeometry width="50" height="50" relative="1" as="geometry">
            <mxPoint x="561" y="719" as="sourcePoint" />
            <mxPoint x="647" y="719" as="targetPoint" />
          </mxGeometry>
        </mxCell>
        <mxCell id="ZLTrSNtA1yzsjNhUDBOq-41" value="Yes" style="text;html=1;strokeColor=none;fillColor=none;align=center;verticalAlign=middle;whiteSpace=wrap;rounded=0;" vertex="1" parent="1">
          <mxGeometry x="569" y="698" width="60" height="30" as="geometry" />
        </mxCell>
        <mxCell id="ZLTrSNtA1yzsjNhUDBOq-42" value="Put New Name and Action" style="rounded=0;whiteSpace=wrap;html=1;fontSize=11;fillColor=#f5f5f5;fontColor=#333333;strokeColor=#666666;" vertex="1" parent="1">
          <mxGeometry x="648" y="689" width="120" height="60" as="geometry" />
        </mxCell>
        <mxCell id="ZLTrSNtA1yzsjNhUDBOq-43" value="No" style="text;html=1;strokeColor=none;fillColor=none;align=center;verticalAlign=middle;whiteSpace=wrap;rounded=0;" vertex="1" parent="1">
          <mxGeometry x="699" y="872" width="60" height="30" as="geometry" />
        </mxCell>
        <mxCell id="ZLTrSNtA1yzsjNhUDBOq-44" value="" style="endArrow=classic;html=1;rounded=0;exitX=0.5;exitY=1;exitDx=0;exitDy=0;" edge="1" parent="1">
          <mxGeometry width="50" height="50" relative="1" as="geometry">
            <mxPoint x="713.5" y="869" as="sourcePoint" />
            <mxPoint x="713.5" y="929" as="targetPoint" />
          </mxGeometry>
        </mxCell>
        <mxCell id="ZLTrSNtA1yzsjNhUDBOq-45" value="Success?" style="rhombus;whiteSpace=wrap;html=1;fontSize=11;fillColor=#f8cecc;strokeColor=#b85450;" vertex="1" parent="1">
          <mxGeometry x="673" y="789" width="80" height="80" as="geometry" />
        </mxCell>
        <mxCell id="ZLTrSNtA1yzsjNhUDBOq-47" value="Show Error Message" style="rounded=1;whiteSpace=wrap;html=1;fontSize=11;fillColor=#fad7ac;strokeColor=#b46504;" vertex="1" parent="1">
          <mxGeometry x="658" y="929" width="110" height="48" as="geometry" />
        </mxCell>
        <mxCell id="ZLTrSNtA1yzsjNhUDBOq-53" value="" style="endArrow=classic;html=1;rounded=0;fontSize=11;entryX=1;entryY=0.5;entryDx=0;entryDy=0;exitX=0;exitY=0.5;exitDx=0;exitDy=0;" edge="1" parent="1" source="ZLTrSNtA1yzsjNhUDBOq-45" target="ZLTrSNtA1yzsjNhUDBOq-37">
          <mxGeometry width="50" height="50" relative="1" as="geometry">
            <mxPoint x="670" y="859" as="sourcePoint" />
            <mxPoint x="690" y="809" as="targetPoint" />
          </mxGeometry>
        </mxCell>
        <mxCell id="ZLTrSNtA1yzsjNhUDBOq-54" value="Yes" style="text;html=1;strokeColor=none;fillColor=none;align=center;verticalAlign=middle;whiteSpace=wrap;rounded=0;" vertex="1" parent="1">
          <mxGeometry x="499" y="870" width="60" height="30" as="geometry" />
        </mxCell>
        <mxCell id="ZLTrSNtA1yzsjNhUDBOq-55" value="" style="endArrow=classic;html=1;rounded=0;fontSize=11;exitX=0;exitY=0.5;exitDx=0;exitDy=0;" edge="1" parent="1" source="ZLTrSNtA1yzsjNhUDBOq-47">
          <mxGeometry width="50" height="50" relative="1" as="geometry">
            <mxPoint x="683" y="839" as="sourcePoint" />
            <mxPoint x="410" y="953" as="targetPoint" />
          </mxGeometry>
        </mxCell>
        <mxCell id="ZLTrSNtA1yzsjNhUDBOq-56" value="" style="endArrow=classic;html=1;rounded=0;" edge="1" parent="1">
          <mxGeometry width="50" height="50" relative="1" as="geometry">
            <mxPoint x="713.5" y="749" as="sourcePoint" />
            <mxPoint x="713.5" y="789" as="targetPoint" />
          </mxGeometry>
        </mxCell>
        <mxCell id="ZLTrSNtA1yzsjNhUDBOq-57" value="Yes" style="text;html=1;strokeColor=none;fillColor=none;align=center;verticalAlign=middle;whiteSpace=wrap;rounded=0;" vertex="1" parent="1">
          <mxGeometry x="344.5" y="490" width="60" height="30" as="geometry" />
        </mxCell>
        <mxCell id="ZLTrSNtA1yzsjNhUDBOq-58" value="&lt;font style=&quot;font-size: 24px;&quot;&gt;Scale In/Out Instances&lt;/font&gt;" style="text;html=1;strokeColor=none;fillColor=none;align=center;verticalAlign=middle;whiteSpace=wrap;rounded=0;fontSize=11;" vertex="1" parent="1">
          <mxGeometry x="233" y="50" width="251" height="30" as="geometry" />
        </mxCell>
        <mxCell id="ZLTrSNtA1yzsjNhUDBOq-59" value="" style="rhombus;whiteSpace=wrap;html=1;fontSize=11;fillColor=#f8cecc;strokeColor=#b85450;" vertex="1" parent="1">
          <mxGeometry x="880" y="995" width="80" height="80" as="geometry" />
        </mxCell>
        <mxCell id="ZLTrSNtA1yzsjNhUDBOq-60" value="" style="endArrow=classic;html=1;rounded=0;entryX=0;entryY=0.5;entryDx=0;entryDy=0;" edge="1" parent="1">
          <mxGeometry width="50" height="50" relative="1" as="geometry">
            <mxPoint x="960" y="1034.4099999999999" as="sourcePoint" />
            <mxPoint x="1016" y="1034.41" as="targetPoint" />
          </mxGeometry>
        </mxCell>
        <mxCell id="ZLTrSNtA1yzsjNhUDBOq-61" value="&lt;font style=&quot;font-size: 12px;&quot;&gt;For Decision making purpose&lt;/font&gt;" style="text;html=1;strokeColor=none;fillColor=none;align=center;verticalAlign=middle;whiteSpace=wrap;rounded=0;fontSize=24;" vertex="1" parent="1">
          <mxGeometry x="1016" y="1015.4100000000001" width="174" height="30" as="geometry" />
        </mxCell>
        <mxCell id="ZLTrSNtA1yzsjNhUDBOq-62" value="" style="rounded=0;whiteSpace=wrap;html=1;fontSize=11;fillColor=#f5f5f5;fontColor=#333333;strokeColor=#666666;" vertex="1" parent="1">
          <mxGeometry x="880" y="930" width="80" height="47" as="geometry" />
        </mxCell>
        <mxCell id="ZLTrSNtA1yzsjNhUDBOq-63" value="" style="endArrow=classic;html=1;rounded=0;entryX=0;entryY=0.5;entryDx=0;entryDy=0;" edge="1" parent="1">
          <mxGeometry width="50" height="50" relative="1" as="geometry">
            <mxPoint x="960.9999999999998" y="952.4099999999999" as="sourcePoint" />
            <mxPoint x="1017" y="952.4100000000001" as="targetPoint" />
          </mxGeometry>
        </mxCell>
        <mxCell id="ZLTrSNtA1yzsjNhUDBOq-64" value="&lt;span style=&quot;font-size: 12px;&quot;&gt;Processing&lt;/span&gt;" style="text;html=1;strokeColor=none;fillColor=none;align=center;verticalAlign=middle;whiteSpace=wrap;rounded=0;fontSize=24;" vertex="1" parent="1">
          <mxGeometry x="1015" y="933.5" width="80" height="30" as="geometry" />
        </mxCell>
        <mxCell id="ZLTrSNtA1yzsjNhUDBOq-65" value="" style="rounded=1;whiteSpace=wrap;html=1;fontSize=11;fillColor=#fad7ac;strokeColor=#b46504;" vertex="1" parent="1">
          <mxGeometry x="885" y="872" width="70" height="31" as="geometry" />
        </mxCell>
        <mxCell id="ZLTrSNtA1yzsjNhUDBOq-66" value="" style="endArrow=classic;html=1;rounded=0;entryX=0;entryY=0.5;entryDx=0;entryDy=0;" edge="1" parent="1">
          <mxGeometry width="50" height="50" relative="1" as="geometry">
            <mxPoint x="954.9999999999998" y="888.9099999999996" as="sourcePoint" />
            <mxPoint x="1011" y="888.9100000000001" as="targetPoint" />
          </mxGeometry>
        </mxCell>
        <mxCell id="ZLTrSNtA1yzsjNhUDBOq-67" value="&lt;span style=&quot;font-size: 12px;&quot;&gt;Error&lt;/span&gt;" style="text;html=1;strokeColor=none;fillColor=none;align=center;verticalAlign=middle;whiteSpace=wrap;rounded=0;fontSize=24;" vertex="1" parent="1">
          <mxGeometry x="1009" y="870" width="80" height="30" as="geometry" />
        </mxCell>
        <mxCell id="ZLTrSNtA1yzsjNhUDBOq-71" value="No" style="text;html=1;strokeColor=none;fillColor=none;align=center;verticalAlign=middle;whiteSpace=wrap;rounded=0;" vertex="1" parent="1">
          <mxGeometry x="420" y="400" width="60" height="30" as="geometry" />
        </mxCell>
      </root>
    </mxGraphModel>
  </diagram>
</mxfile>
